<svg width="253" height="75" viewBox="0 0 253 75" fill="none" xmlns="http://www.w3.org/2000/svg">
<g clip-path="url(#clip0_1_2879)">
<path fill-rule="evenodd" clip-rule="evenodd" d="M97.0111 23.7659H96.9641C94.2656 23.7659 92.0781 25.9009 92.0781 28.5344C92.0781 31.168 94.2656 33.303 96.9641 33.303L97.0111 33.3028L128.958 33.303H129.287V33.2918C131.78 33.1238 133.75 31.058 133.75 28.5344C133.75 26.0108 131.78 23.945 129.287 23.777V23.7659H128.958H97.0111Z" fill="#F4F4F4"/>
<path fill-rule="evenodd" clip-rule="evenodd" d="M96.7305 53.969C96.9381 53.969 97.1425 53.9533 97.3425 53.9234V53.969H129.147H129.618V53.9452C131.992 53.7054 133.845 51.6727 133.845 49.2004C133.845 46.7282 131.992 44.6953 129.618 44.4555V44.4319H129.147H97.3425V44.4773C97.1425 44.4473 96.9381 44.4319 96.7305 44.4319C94.2915 44.4319 92.3145 46.5669 92.3145 49.2004C92.3145 51.834 94.2915 53.969 96.7305 53.969Z" fill="#F8990B"/>
<path d="M8.13564 5.05401C8.13564 5.63208 8.00191 6.15836 7.73446 6.63288C7.46699 7.09878 7.07011 7.46977 6.54383 7.74587C6.02616 8.02195 5.39634 8.15999 4.65435 8.15999H3.51549V11.0718H0.642456V1.90921H4.65435C5.77596 1.90921 6.63442 2.19392 7.22972 2.76336C7.83367 3.33278 8.13564 4.09633 8.13564 5.05401ZM4.33081 5.89523C4.92613 5.89523 5.22378 5.61481 5.22378 5.05401C5.22378 4.49322 4.92613 4.2128 4.33081 4.2128H3.51549V5.89523H4.33081ZM25.884 11.0718L24.1627 7.78469H24.1497V11.0718H21.2767V1.90921H25.5475C26.2893 1.90921 26.9235 2.04294 27.4499 2.31039C27.9762 2.56923 28.3687 2.92728 28.6275 3.38455C28.895 3.83319 29.0287 4.34222 29.0287 4.91166C29.0287 5.52422 28.8561 6.06778 28.511 6.54229C28.1745 7.01682 27.6871 7.35762 27.0487 7.56468L29.0417 11.0718H25.884ZM24.1497 5.86933H25.2885C25.5648 5.86933 25.7718 5.80895 25.9098 5.68816C26.0479 5.55874 26.1169 5.36029 26.1169 5.09285C26.1169 4.85126 26.0436 4.66146 25.8968 4.52341C25.7588 4.38536 25.556 4.31635 25.2885 4.31635H24.1497V5.86933ZM46.6413 11.1624C45.7785 11.1624 44.9848 10.9597 44.26 10.5542C43.5438 10.1487 42.9744 9.5879 42.5518 8.87178C42.1289 8.15568 41.9176 7.34898 41.9176 6.4517C41.9176 5.55443 42.1289 4.74774 42.5518 4.03164C42.9744 3.31552 43.5438 2.75904 44.26 2.36216C44.9848 1.95667 45.7785 1.75391 46.6413 1.75391C47.5041 1.75391 48.2934 1.95667 49.0096 2.36216C49.7256 2.75904 50.2907 3.31552 50.7048 4.03164C51.1277 4.74774 51.339 5.55443 51.339 6.4517C51.339 7.34898 51.1277 8.15568 50.7048 8.87178C50.2907 9.5879 49.7213 10.1487 48.9966 10.5542C48.2806 10.9597 47.4953 11.1624 46.6413 11.1624ZM46.6413 8.48355C47.2107 8.48355 47.6507 8.30236 47.9613 7.93998C48.2718 7.56899 48.4271 7.07291 48.4271 6.4517C48.4271 5.82188 48.2718 5.32579 47.9613 4.96343C47.6507 4.59242 47.2107 4.40694 46.6413 4.40694C46.0631 4.40694 45.6189 4.59242 45.3083 4.96343C44.9976 5.32579 44.8423 5.82188 44.8423 6.4517C44.8423 7.07291 44.9976 7.56899 45.3083 7.93998C45.6189 8.30236 46.0631 8.48355 46.6413 8.48355ZM70.9984 1.90921V7.82351C70.9984 8.91923 70.7095 9.75182 70.1313 10.3212C69.5619 10.882 68.7596 11.1624 67.7242 11.1624C66.6112 11.1624 65.7268 10.8562 65.0713 10.2436C64.4155 9.63102 64.0876 8.73806 64.0876 7.56468H66.9218C66.9218 7.93567 66.9823 8.19882 67.103 8.35413C67.2238 8.50079 67.3876 8.57412 67.5949 8.57412C67.7673 8.57412 67.9011 8.51805 67.9959 8.40588C68.0908 8.29373 68.1383 8.09961 68.1383 7.82351V1.90921H70.9984ZM87.3417 4.19988V5.32579H90.1888V7.48703H87.3417V8.7812H90.577V11.0718H84.4686V1.90921H90.577V4.19988H87.3417ZM103.631 6.47759C103.631 5.57167 103.812 4.76498 104.174 4.05751C104.545 3.35004 105.072 2.80218 105.753 2.41393C106.435 2.01705 107.237 1.81861 108.16 1.81861C108.954 1.81861 109.662 1.9696 110.283 2.27157C110.913 2.56491 111.422 2.98335 111.81 3.52692C112.207 4.07046 112.47 4.7046 112.599 5.42933H109.571C109.433 5.12735 109.235 4.8944 108.976 4.73047C108.725 4.55792 108.436 4.47164 108.109 4.47164C107.625 4.47164 107.241 4.65283 106.957 5.01518C106.681 5.37756 106.543 5.86501 106.543 6.47759C106.543 7.09015 106.681 7.57763 106.957 7.93998C107.241 8.30236 107.625 8.48355 108.109 8.48355C108.436 8.48355 108.725 8.40158 108.976 8.23764C109.235 8.06508 109.433 7.82783 109.571 7.52586H112.599C112.47 8.25059 112.207 8.88473 111.81 9.42827C111.422 9.97181 110.913 10.3946 110.283 10.6965C109.662 10.9899 108.954 11.1366 108.16 11.1366C107.237 11.1366 106.435 10.9425 105.753 10.5542C105.072 10.1573 104.545 9.60514 104.174 8.89767C103.812 8.19019 103.631 7.38351 103.631 6.47759ZM133.059 1.90921V4.18693H130.626V11.0718H127.753V4.18693H125.346V1.90921H133.059Z" fill="#F4F4F4"/>
<path fill-rule="evenodd" clip-rule="evenodd" d="M44.4408 23.7659H72.3703H72.5812V23.7701C75.2207 23.8766 77.3267 25.969 77.3267 28.5344C77.3267 31.1001 75.2207 33.1923 72.5812 33.2987V33.303H72.3703H58.5239C53.2377 34.5015 50.5831 36.3954 48.998 41.1902V67.1982V67.2235C48.9844 69.7936 46.8651 71.8728 44.2529 71.8728C41.641 71.8728 39.5218 69.7936 39.508 67.2235V67.1982V28.4704L39.5078 28.4405L39.508 28.4072V28.3709C39.5406 25.7712 41.3939 23.7662 44.4408 23.7659Z" fill="#F4F4F4"/>
<path fill-rule="evenodd" clip-rule="evenodd" d="M5.07308 33.3028L5.12076 33.303H29.034H29.0801C31.9389 33.2803 34.2488 31.1538 34.2488 28.5344C34.2488 25.915 31.9389 23.7888 29.0801 23.7661L29.034 23.7659H5.12076H5.07308C2.2928 23.7899 0.046875 25.9158 0.046875 28.5344C0.046875 31.1531 2.2928 33.2786 5.07308 33.3028Z" fill="#F4F4F4"/>
<path fill-rule="evenodd" clip-rule="evenodd" d="M97.0082 74.4102H97.0322H128.767V74.3968C128.883 74.4057 129 74.4102 129.118 74.4102C131.674 74.4102 133.746 72.2754 133.746 69.6418C133.746 67.0083 131.674 64.8733 129.118 64.8733C129 64.8733 128.883 64.8779 128.767 64.8869V64.8733H97.0322H97.0082C94.3856 64.8863 92.2637 67.0163 92.2637 69.6418C92.2637 72.2672 94.3856 74.3972 97.0082 74.4102Z" fill="#1CB1D9"/>
<path fill-rule="evenodd" clip-rule="evenodd" d="M202.294 23.6323C203.744 23.0063 205.587 23.2046 207.038 24.0423L207.04 24.0374L237.821 39.6969C242.47 41.3933 253.708 46.7061 252.867 58.2065C252.867 58.2141 252.867 58.2218 252.865 58.2292C252.854 59.2834 252.72 60.3041 252.484 61.2926C252.277 62.3627 252.015 63.1363 251.714 63.6687C251.022 65.3603 250.067 66.95 248.99 68.4453C246.803 71.487 243.14 72.7119 239.711 73.5898C236.285 74.4676 232.555 73.7533 229.376 72.0863C226.256 70.4501 222.539 65.5303 221.248 63.6613L221.239 63.6475C221.219 63.6174 221.198 63.588 221.178 63.5594L221.183 63.5569L200.326 29.9574L200.33 29.9558C200.304 29.9102 200.278 29.8639 200.252 29.817C199.078 27.6236 200.003 24.8587 202.294 23.6323ZM228.563 59.0853C228.589 59.1257 228.636 59.2012 228.702 59.3054C229.342 60.3255 231.716 64.1068 233.135 64.8515C234.717 65.6808 236.763 66.721 238.467 66.2842C240.173 65.8476 242.429 64.7672 243.517 63.2541C244.582 61.7758 245.114 60.098 245.138 58.2193C245.108 58.0387 244.678 55.5988 243.119 53.2501C242.638 52.5237 240.054 51.1465 238.082 50.0953C237.274 49.665 236.571 49.2894 236.155 49.0353L233.541 47.6381L215.88 38.653L228.563 59.0853Z" fill="#F4F4F4"/>
<path fill-rule="evenodd" clip-rule="evenodd" d="M147.137 4.57788C147.137 4.55215 147.137 4.5265 147.137 4.50088V4.49601C147.183 2.00401 149.3 -0.00268555 151.905 -0.00268555C154.51 -0.00268555 156.628 2.00401 156.673 4.49601L156.675 23.6834L156.677 23.6477C157.195 28.4417 159.654 32.4948 165.297 33.0687H180.697C180.765 33.0661 180.834 33.0661 180.904 33.0687H180.919C181.624 33.0975 182.435 33.3844 183.08 34.0546C185.602 36.6761 188.299 42.8214 190.081 46.883C190.31 47.4028 190.522 47.8887 190.72 48.3284L199.213 64.3351C199.251 64.397 199.288 64.4601 199.321 64.5244C200.542 66.803 199.647 69.6578 197.325 70.9004C195.004 72.1432 192.133 71.3033 190.913 69.0247C190.749 68.7198 190.625 68.4045 190.535 68.0842L179.626 47.5107L180.239 49.0584C177.45 43.6482 174.652 43.1082 171.985 42.6056H164.429C159.742 43.7364 157.856 44.9932 156.677 51.9743L156.675 51.9412V68.1071H156.671C156.674 68.1772 156.675 68.2479 156.675 68.3188C156.675 70.9523 154.54 73.0873 151.907 73.0873C149.273 73.0873 147.138 70.9523 147.138 68.3188C147.138 68.2479 147.14 68.1772 147.143 68.1071H147.137V4.65486C147.137 4.62924 147.137 4.60359 147.137 4.57788Z" fill="#F4F4F4"/>
</g>
<defs>
<clipPath id="clip0_1_2879">
<rect width="252.993" height="74.4096" fill="white" transform="translate(0 -0.00268555)"/>
</clipPath>
</defs>
</svg>
