<svg width="29" height="30" viewBox="0 0 29 30" fill="none" xmlns="http://www.w3.org/2000/svg">
<g clip-path="url(#clip0_13_20)">
<path d="M5.83156 3.32289C5.99277 3.13442 6.19289 2.9831 6.41816 2.87936C6.64343 2.77562 6.8885 2.72191 7.13652 2.72192H21.8001C22.0481 2.72191 22.2932 2.77562 22.5184 2.87936C22.7437 2.9831 22.9438 3.13442 23.105 3.32289L27.5848 8.54958C27.9848 9.01633 28.2047 9.61073 28.2047 10.2254V10.6633C28.2048 11.5132 27.9393 12.3418 27.4454 13.0335C26.9515 13.7252 26.2539 14.2452 25.45 14.521C24.6461 14.7968 23.7761 14.8145 22.9616 14.5717C22.1471 14.3289 21.4289 13.8377 20.9072 13.1667C20.5264 13.6575 20.0382 14.0546 19.4802 14.3275C18.9221 14.6004 18.309 14.7419 17.6878 14.7412C17.0665 14.7419 16.4534 14.6004 15.8954 14.3275C15.3373 14.0546 14.8492 13.6575 14.4683 13.1667C14.0874 13.6575 13.5993 14.0546 13.0412 14.3275C12.4832 14.6004 11.8701 14.7419 11.2488 14.7412C10.6276 14.7419 10.0145 14.6004 9.45645 14.3275C8.89839 14.0546 8.41023 13.6575 8.02938 13.1667C7.50773 13.8377 6.78947 14.3289 5.975 14.5717C5.16053 14.8145 4.29054 14.7968 3.48663 14.521C2.68273 14.2452 1.98507 13.7252 1.49118 13.0335C0.997289 12.3418 0.73184 11.5132 0.731934 10.6633V10.2254C0.731955 9.61073 0.951813 9.01633 1.35179 8.54958L5.83156 3.32289ZM8.8879 10.6633C8.8879 11.2894 9.13664 11.8899 9.57941 12.3327C10.0222 12.7755 10.6227 13.0242 11.2488 13.0242C11.875 13.0242 12.4755 12.7755 12.9183 12.3327C13.361 11.8899 13.6098 11.2894 13.6098 10.6633C13.6098 10.4356 13.7002 10.2172 13.8612 10.0562C14.0222 9.89519 14.2406 9.80474 14.4683 9.80474C14.696 9.80474 14.9144 9.89519 15.0754 10.0562C15.2364 10.2172 15.3268 10.4356 15.3268 10.6633C15.3268 11.2894 15.5756 11.8899 16.0183 12.3327C16.4611 12.7755 17.0616 13.0242 17.6878 13.0242C18.3139 13.0242 18.9144 12.7755 19.3572 12.3327C19.8 11.8899 20.0487 11.2894 20.0487 10.6633C20.0487 10.4356 20.1392 10.2172 20.3002 10.0562C20.4612 9.89519 20.6795 9.80474 20.9072 9.80474C21.1349 9.80474 21.3533 9.89519 21.5143 10.0562C21.6753 10.2172 21.7657 10.4356 21.7657 10.6633C21.7657 11.2894 22.0145 11.8899 22.4573 12.3327C22.9 12.7755 23.5005 13.0242 24.1267 13.0242C24.7528 13.0242 25.3534 12.7755 25.7961 12.3327C26.2389 11.8899 26.4876 11.2894 26.4876 10.6633V10.2254C26.4876 10.0208 26.4146 9.82289 26.2816 9.66738L21.8001 4.43897H7.13652L2.65503 9.66738C2.52204 9.82289 2.44896 10.0208 2.44898 10.2254V10.6633C2.44898 11.2894 2.69772 11.8899 3.14048 12.3327C3.58324 12.7755 4.18376 13.0242 4.80992 13.0242C5.43608 13.0242 6.03659 12.7755 6.47935 12.3327C6.92212 11.8899 7.17086 11.2894 7.17086 10.6633C7.17086 10.4356 7.26131 10.2172 7.42231 10.0562C7.58332 9.89519 7.80169 9.80474 8.02938 9.80474C8.25707 9.80474 8.47544 9.89519 8.63645 10.0562C8.79745 10.2172 8.8879 10.4356 8.8879 10.6633ZM3.3075 15.5998C3.5352 15.5998 3.75357 15.6902 3.91457 15.8512C4.07557 16.0122 4.16603 16.2306 4.16603 16.4583V26.7606H24.7706V16.4583C24.7706 16.2306 24.861 16.0122 25.022 15.8512C25.183 15.6902 25.4014 15.5998 25.6291 15.5998C25.8568 15.5998 26.0752 15.6902 26.2362 15.8512C26.3972 16.0122 26.4876 16.2306 26.4876 16.4583V26.7606H27.3461C27.5738 26.7606 27.7922 26.851 27.9532 27.012C28.1142 27.173 28.2047 27.3914 28.2047 27.6191C28.2047 27.8468 28.1142 28.0652 27.9532 28.2262C27.7922 28.3872 27.5738 28.4776 27.3461 28.4776H1.59046C1.36276 28.4776 1.14439 28.3872 0.983389 28.2262C0.822385 28.0652 0.731934 27.8468 0.731934 27.6191C0.731934 27.3914 0.822385 27.173 0.983389 27.012C1.14439 26.851 1.36276 26.7606 1.59046 26.7606H2.44898V16.4583C2.44898 16.2306 2.53943 16.0122 2.70044 15.8512C2.86144 15.6902 3.07981 15.5998 3.3075 15.5998ZM6.7416 16.4583C6.96929 16.4583 7.18766 16.5487 7.34866 16.7097C7.50967 16.8708 7.60012 17.0891 7.60012 17.3168V23.3265H21.3365V17.3168C21.3365 17.0891 21.4269 16.8708 21.5879 16.7097C21.7489 16.5487 21.9673 16.4583 22.195 16.4583C22.4227 16.4583 22.6411 16.5487 22.8021 16.7097C22.9631 16.8708 23.0535 17.0891 23.0535 17.3168V23.3265C23.0535 23.7819 22.8726 24.2186 22.5506 24.5406C22.2286 24.8626 21.7919 25.0435 21.3365 25.0435H7.60012C7.14473 25.0435 6.70799 24.8626 6.38598 24.5406C6.06397 24.2186 5.88307 23.7819 5.88307 23.3265V17.3168C5.88307 17.0891 5.97352 16.8708 6.13453 16.7097C6.29553 16.5487 6.5139 16.4583 6.7416 16.4583Z" fill="white"/>
</g>
<defs>
<clipPath id="clip0_13_20">
<rect width="28.4086" height="28.4086" fill="white" transform="translate(0.20459 0.86792)"/>
</clipPath>
</defs>
</svg>
