<svg width="115" height="40" viewBox="0 0 115 40" fill="none" xmlns="http://www.w3.org/2000/svg">
<mask id="mask0_1_818" style="mask-type:luminance" maskUnits="userSpaceOnUse" x="0" y="0" width="115" height="40">
<path d="M114.182 0H0V40H114.182V0Z" fill="white"/>
</mask>
<g mask="url(#mask0_1_818)">
<path fill-rule="evenodd" clip-rule="evenodd" d="M105.066 23.6514C110.3 22.3602 114.182 17.6334 114.182 12C114.182 5.3726 108.81 0 102.182 0C97.6886 0 93.7721 2.46929 91.7156 6.12485C88.2591 10.9341 84.3056 16.7481 81.9071 20.7003C80.5321 13.4681 74.1776 8 66.5456 8C58.5871 8 52.0171 13.9458 51.0356 21.6376C50.8916 21.4595 50.7291 21.2789 50.5456 21.0909C51.6681 18.8986 51.6356 17.694 50.9091 15.6363C49.8031 13.6154 48.7769 13.1772 46.5455 13.0909H42.1818H41.4546H38.5455V14.389C37.1241 12.0301 34.7732 10.2944 32 9.68885V0.727275H0V10.1818H11.6364V40H20.3636V23.4227C21.8661 27.171 25.533 29.8182 29.8182 29.8182C33.522 29.8182 36.7638 27.8406 38.5455 24.8838V28.3636H42.1818V23.2728H46.5455C47.2612 24.0226 47.3597 25.3181 47.2727 28.3636H51.6361C53.6401 34.6886 59.5576 39.2728 66.5456 39.2728C72.1786 39.2728 77.1156 36.2942 79.8681 31.8261C82.5316 35.8577 85.6121 36.292 90.3126 36.9545C90.6256 36.9985 90.9456 37.0437 91.2726 37.0909C99.5096 37.7151 103.736 37.4934 111.273 37.0909C102.378 37.0038 92.5766 34.3141 93.8181 32.3637C95.0566 30.4172 100.809 26.1315 105.066 23.6514ZM101.596 23.9859C100.106 23.9143 98.6871 23.5709 97.3881 23.0044C94.4756 24.7895 92.8311 26.946 91.5751 28.5936C91.3416 28.9 91.1216 29.189 90.9091 29.4545C91.1841 28.8139 91.3231 28.4074 91.4471 28.0464C91.8031 27.0085 92.0291 26.3489 94.9651 21.5884C94.5801 21.2982 94.2131 20.9853 93.8661 20.6517C90.4671 23.8163 87.6471 28.4288 88.0001 30.5455C88.3636 32.7272 90.4051 34.0074 93.0911 34.9091L100.364 36.3637C99.7686 36.1776 99.0871 35.9887 98.3766 35.7918C95.0846 34.8797 91.1671 33.7944 92.3636 32C93.8181 29.8182 97.5056 26.2486 101.455 24L101.596 23.9859ZM92.8276 19.5175C90.0211 22.1638 87.2401 25.8952 86.1816 28.3636C85.2616 30.5104 85.6351 31.1053 85.9926 31.6752C86.0591 31.7811 86.1251 31.8861 86.1816 32C86.5456 32.7272 90.9561 35.3184 94.1816 36.7272C94.1816 36.7272 85.8181 34.5454 83.6361 32.7272C81.4546 30.9091 81.1591 28.5947 82.1816 25.8182C85.5301 18.818 87.3231 16.0357 90.1896 12.4431C90.2176 13.2008 90.3151 13.9408 90.4771 14.6564C86.2211 21.5381 85.2611 23.9201 84.7271 26.9091C86.0771 24.2677 87.0601 22.6537 91.7971 18.0166C92.1026 18.5437 92.4481 19.0453 92.8276 19.5175ZM20.3636 15.85C21.3969 13.2722 23.454 11.2151 26.0319 10.1818H20.3636V15.85ZM46.5455 16.7272C47.6167 17.8564 47.6679 18.5142 46.5455 19.6364H42.1818V16.7272H46.5455ZM66.5456 32.3008C68.0131 32.3008 69.3951 31.936 70.6066 31.292L66.2751 26.9608L70.6691 22.5667L74.6931 26.5907C75.0276 25.6688 75.2101 24.6738 75.2101 23.6364C75.2101 18.8512 71.3306 14.9719 66.5456 14.9719C61.7601 14.9719 57.8811 18.8512 57.8811 23.6364C57.8811 28.4216 61.7601 32.3008 66.5456 32.3008ZM29.8182 24.8631C26.9315 24.8631 24.5914 22.5231 24.5914 19.6364C24.5914 16.7497 26.9315 14.4096 29.8182 14.4096C32.7049 14.4096 35.0449 16.7497 35.0449 19.6364C35.0449 22.5231 32.7049 24.8631 29.8182 24.8631Z" fill="#F4F4F4"/>
<path d="M102.182 22.91C108.207 22.91 113.092 18.0258 113.092 12.0009C113.092 5.97595 108.207 1.0918 102.182 1.0918C96.1574 1.0918 91.2734 5.97595 91.2734 12.0009C91.2734 18.0258 96.1574 22.91 102.182 22.91Z" fill="#CBDB2A"/>
<path fill-rule="evenodd" clip-rule="evenodd" d="M97.4551 6.54492H104.001V9.45402H97.4551V6.54492ZM104.001 18.1813C105.819 18.1813 107.637 16.7268 107.637 14.9086C107.637 14.9086 107.637 13.0904 106.182 13.0904C105.819 13.0904 105.455 12.7268 105.455 12.3631C105.455 11.9995 105.819 11.6359 106.182 11.6359C107.637 11.6359 107.637 9.81767 107.637 9.81767C107.637 7.99947 105.819 6.54492 104.001 6.54492V9.45402C104.364 9.45402 104.728 9.81207 104.728 10.1813C104.728 10.5449 104.364 10.9086 104.001 10.9086H99.6371V13.8177H104.001C104.364 13.8177 104.728 14.1813 104.728 14.5449C104.728 14.9142 104.364 15.2722 104.001 15.2722V18.1813ZM104.001 18.1813V15.2722H97.4551V18.1813H104.001ZM104.001 13.8177L104.001 12.3631L104.001 10.9086V13.8177Z" fill="#040608"/>
</g>
</svg>
