<svg width="27" height="29" viewBox="0 0 27 29" fill="none" xmlns="http://www.w3.org/2000/svg">
<path d="M2.06628 8.62288H22.0663V4.28955H2.06628V8.62288ZM2.06628 26.9562C1.53294 26.9562 1.06628 26.7562 0.666277 26.3562C0.266277 25.9562 0.0662766 25.4896 0.0662766 24.9562V4.28955C0.0662766 3.75622 0.266277 3.28955 0.666277 2.88955C1.06628 2.48955 1.53294 2.28955 2.06628 2.28955H4.23294V0.289551H6.39961V2.28955H17.7329V0.289551H19.8996V2.28955H22.0663C22.5996 2.28955 23.0663 2.48955 23.4663 2.88955C23.8663 3.28955 24.0663 3.75622 24.0663 4.28955V14.5229C23.7514 14.3609 23.4283 14.226 23.0969 14.1182C22.7654 14.0102 22.4218 13.9229 22.0663 13.8562V10.6229H2.06628V24.9562H12.6996C12.8329 25.334 12.9885 25.684 13.1663 26.0062C13.3441 26.3284 13.5551 26.6451 13.7996 26.9562H2.06628ZM20.4329 28.2896C18.6901 28.2896 17.2043 27.6754 15.9756 26.4469C14.7471 25.2182 14.1329 23.7324 14.1329 21.9896C14.1329 20.2467 14.7471 18.7609 15.9756 17.5322C17.2043 16.3038 18.6901 15.6896 20.4329 15.6896C22.1758 15.6896 23.6616 16.3038 24.8903 17.5322C26.1187 18.7609 26.7329 20.2467 26.7329 21.9896C26.7329 23.7324 26.1187 25.2182 24.8903 26.4469C23.6616 27.6754 22.1758 28.2896 20.4329 28.2896ZM22.3743 25.3562L23.2996 24.4229L20.7996 21.9229V18.1896H19.4996V22.3896L22.3743 25.3562Z" fill="#F7F7F7"/>
</svg>
