<svg width="26" height="28" viewBox="0 0 26 28" fill="none" xmlns="http://www.w3.org/2000/svg">
<path d="M23.2393 12.9937C23.6917 13.7097 23.9864 14.5345 24.0725 15.4291C24.2811 17.5944 24.4238 19.9329 24.433 22.1085C24.4456 25.0423 21.6731 27.59 19.3115 25.8494C17.9718 24.8618 17.3062 23.4546 17.1107 22.119H9.01226C8.81673 23.4546 8.15119 24.8618 6.81142 25.8494C4.44979 27.59 1.67747 25.0423 1.68998 22.1085C1.69928 19.9329 1.84198 17.5944 2.05048 15.4291C2.13663 14.5345 2.43136 13.7097 2.88366 12.9937" stroke="white" stroke-width="2.0212" stroke-linecap="round" stroke-linejoin="round"/>
<path d="M7.28179 10.0698C9.13966 10.2781 11.0738 10.5226 13.0603 10.5226C15.0468 10.5226 16.9809 10.2781 18.8388 10.0698C19.8087 9.96106 20.582 9.19198 20.6716 8.21998C20.8816 5.9432 21.1298 3.02418 21.1298 1.03271L16.286 3.89851L13.0603 1.03271L9.83457 3.89851L4.99072 1.03271C4.99072 3.02418 5.23895 5.9432 5.44895 8.21998C5.53861 9.19196 6.31176 9.96106 7.28179 10.0698Z" stroke="white" stroke-width="2.0212" stroke-linecap="round" stroke-linejoin="round"/>
<path d="M7.1626 15.9546H10.4852" stroke="white" stroke-width="2.0212" stroke-linecap="round" stroke-linejoin="round"/>
<path d="M8.82471 14.293V17.6155" stroke="white" stroke-width="2.0212" stroke-linecap="round" stroke-linejoin="round"/>
<path d="M17.3989 15.9546V16.3933" stroke="white" stroke-width="2.0212" stroke-linecap="round" stroke-linejoin="round"/>
</svg>
