<svg width="20" height="20" viewBox="0 0 20 20" fill="none" xmlns="http://www.w3.org/2000/svg">
<path opacity="0.9" fill-rule="evenodd" clip-rule="evenodd" d="M10.1222 0.238281C7.56592 0.238281 7.24511 0.249458 6.24112 0.295148C5.2391 0.341033 4.55513 0.499671 3.95666 0.732432C3.33759 0.972841 2.81246 1.29443 2.28929 1.8178C1.76572 2.34097 1.44413 2.86611 1.20294 3.48497C0.96959 4.08364 0.810756 4.7678 0.765655 5.76944C0.72075 6.77343 0.708984 7.09443 0.708984 9.65068C0.708984 12.2069 0.720358 12.5268 0.765851 13.5307C0.811933 14.5328 0.970571 15.2167 1.20314 15.8152C1.44374 16.4343 1.76533 16.9594 2.2887 17.4826C2.81168 18.0061 3.33681 18.3285 3.95548 18.5689C4.55434 18.8017 5.23851 18.9603 6.24034 19.0062C7.24433 19.0519 7.56494 19.0631 10.121 19.0631C12.6774 19.0631 12.9973 19.0519 14.0013 19.0062C15.0033 18.9603 15.688 18.8017 16.2869 18.5689C16.9058 18.3285 17.4301 18.0061 17.9531 17.4826C18.4767 16.9594 18.7982 16.4343 19.0394 15.8154C19.2708 15.2167 19.4297 14.5326 19.4767 13.5309C19.5218 12.527 19.5336 12.2069 19.5336 9.65068C19.5336 7.09443 19.5218 6.77362 19.4767 5.76963C19.4297 4.76761 19.2708 4.08364 19.0394 3.48517C18.7982 2.86611 18.4767 2.34097 17.9531 1.8178C17.4295 1.29423 16.906 0.972645 16.2863 0.732432C15.6863 0.499671 15.0019 0.341033 13.9999 0.295148C12.9959 0.249458 12.6763 0.238281 10.1192 0.238281H10.1222ZM9.27776 1.93445C9.52836 1.93406 9.80799 1.93445 10.1221 1.93445C12.6352 1.93445 12.9331 1.94347 13.9255 1.98857C14.8432 2.03053 15.3413 2.18388 15.6731 2.31271C16.1123 2.48331 16.4255 2.68724 16.7547 3.01668C17.0842 3.34611 17.2881 3.65986 17.4591 4.0991C17.5879 4.4305 17.7415 4.92857 17.7832 5.84628C17.8283 6.8385 17.8381 7.13657 17.8381 9.6485C17.8381 12.1604 17.8283 12.4585 17.7832 13.4507C17.7413 14.3684 17.5879 14.8665 17.4591 15.1979C17.2885 15.6371 17.0842 15.9499 16.7547 16.2791C16.4253 16.6086 16.1125 16.8125 15.6731 16.9831C15.3417 17.1125 14.8432 17.2655 13.9255 17.3074C12.9333 17.3526 12.6352 17.3624 10.1221 17.3624C7.60882 17.3624 7.31096 17.3526 6.31874 17.3074C5.40103 17.2651 4.90295 17.1117 4.57097 16.9829C4.13172 16.8123 3.81798 16.6084 3.48854 16.2789C3.15911 15.9495 2.95517 15.6366 2.78418 15.1971C2.65535 14.8657 2.50181 14.3676 2.46004 13.4499C2.41494 12.4577 2.40592 12.1596 2.40592 9.64615C2.40592 7.13264 2.41494 6.83615 2.46004 5.84393C2.50201 4.92622 2.65535 4.42815 2.78418 4.09636C2.95478 3.65711 3.15911 3.34337 3.48854 3.01393C3.81798 2.6845 4.13172 2.48056 4.57097 2.30957C4.90276 2.18015 5.40103 2.0272 6.31874 1.98504C7.18703 1.94582 7.52352 1.93406 9.27776 1.93209V1.93445ZM15.1464 3.4973C14.5228 3.4973 14.0169 4.00263 14.0169 4.6264C14.0169 5.24997 14.5228 5.75589 15.1464 5.75589C15.77 5.75589 16.2759 5.24997 16.2759 4.6264C16.2759 4.00283 15.77 3.4973 15.1464 3.4973ZM10.1222 4.817C7.45279 4.817 5.28853 6.98126 5.28853 9.65066C5.28853 12.3201 7.45279 14.4833 10.1222 14.4833C12.7916 14.4833 14.9551 12.3201 14.9551 9.65066C14.9551 6.98126 12.7916 4.817 10.1222 4.817ZM10.1222 6.51319C11.8548 6.51319 13.2596 7.91779 13.2596 9.65066C13.2596 11.3833 11.8548 12.7881 10.1222 12.7881C8.38929 12.7881 6.98468 11.3833 6.98468 9.65066C6.98468 7.91779 8.38929 6.51319 10.1222 6.51319Z" fill="white"/>
</svg>
