<svg width="15" height="16" viewBox="0 0 15 16" fill="none" xmlns="http://www.w3.org/2000/svg">
<path d="M11.9805 10.8369L12.1738 10.8476C12.5788 10.8702 12.9408 11.0919 13.1231 11.4542C13.464 12.1338 13.7346 12.8464 13.9308 13.5809C14.0775 14.1332 13.6725 14.6442 13.1018 14.6676C12.1465 14.7069 10.4218 14.7502 7.48045 14.7502C4.53912 14.7502 2.81445 14.7069 1.85912 14.6679C1.28845 14.6446 0.883785 14.1329 1.03012 13.5812C1.22627 12.8466 1.4969 12.1339 1.83778 11.4542C2.02012 11.0919 2.38212 10.8702 2.78712 10.8476L2.98045 10.8372" stroke="#F7F7F7" stroke-linecap="round" stroke-linejoin="round"/>
<path d="M12.4805 5.77333C12.4805 9.31667 8.8978 11.86 7.7978 12.5577C7.70307 12.6183 7.59295 12.6505 7.48047 12.6505C7.36799 12.6505 7.25787 12.6183 7.16314 12.5577C6.06314 11.8603 2.48047 9.31667 2.48047 5.77333C2.48047 2.999 4.71914 0.75 7.48047 0.75C10.2418 0.75 12.4805 2.999 12.4805 5.77333Z" stroke="#F7F7F7" stroke-linecap="round" stroke-linejoin="round"/>
<path d="M9.48047 5.75C9.48047 6.28043 9.26976 6.78914 8.89468 7.16421C8.51961 7.53929 8.0109 7.75 7.48047 7.75C6.95004 7.75 6.44133 7.53929 6.06625 7.16421C5.69118 6.78914 5.48047 6.28043 5.48047 5.75C5.48047 5.21957 5.69118 4.71086 6.06625 4.33579C6.44133 3.96071 6.95004 3.75 7.48047 3.75C8.0109 3.75 8.51961 3.96071 8.89468 4.33579C9.26976 4.71086 9.48047 5.21957 9.48047 5.75Z" stroke="#F7F7F7" stroke-linecap="round" stroke-linejoin="round"/>
</svg>
