<svg width="136" height="40" viewBox="0 0 136 40" fill="none" xmlns="http://www.w3.org/2000/svg">
<g clip-path="url(#clip0_1_243)">
<path fill-rule="evenodd" clip-rule="evenodd" d="M52.1498 12.7773H52.1245C50.6739 12.7773 49.498 13.925 49.498 15.3407C49.498 16.7564 50.6739 17.9041 52.1245 17.9041L52.1498 17.904L69.3235 17.9041H69.5V17.8981C70.8403 17.8078 71.8994 16.6973 71.8994 15.3407C71.8994 13.9841 70.8403 12.8736 69.5 12.7833V12.7773H69.3235H52.1498Z" fill="#F4F4F4"/>
<path fill-rule="evenodd" clip-rule="evenodd" d="M51.9989 29.0135C52.1105 29.0135 52.2204 29.0051 52.3279 28.989V29.0135H69.4249H69.6781V29.0007C70.954 28.8718 71.9504 27.7791 71.9504 26.4501C71.9504 25.1211 70.954 24.0283 69.6781 23.8994V23.8867H69.4249H52.3279V23.9111C52.2204 23.895 52.1105 23.8867 51.9989 23.8867C50.6878 23.8867 49.625 25.0344 49.625 26.4501C49.625 27.8658 50.6878 29.0135 51.9989 29.0135Z" fill="#F8990B"/>
<path d="M4.37377 2.71835C4.37377 3.0291 4.30188 3.31201 4.15811 3.5671C4.01433 3.81755 3.80098 4.01698 3.51807 4.1654C3.23979 4.31381 2.90122 4.38802 2.50235 4.38802H1.89014V5.95333H0.345703V1.02782H2.50235C3.10529 1.02782 3.56677 1.18087 3.88678 1.48698C4.21144 1.79308 4.37377 2.20354 4.37377 2.71835ZM2.32843 3.17056C2.64845 3.17056 2.80846 3.01982 2.80846 2.71835C2.80846 2.41689 2.64845 2.26615 2.32843 2.26615H1.89014V3.17056H2.32843ZM13.9147 5.95333L12.9894 4.18627H12.9824V5.95333H11.438V1.02782H13.7338C14.1326 1.02782 14.4735 1.09971 14.7565 1.24348C15.0394 1.38262 15.2504 1.5751 15.3895 1.82091C15.5333 2.06208 15.6052 2.33572 15.6052 2.64183C15.6052 2.97112 15.5124 3.26332 15.3269 3.5184C15.146 3.77349 14.884 3.95669 14.5408 4.068L15.6122 5.95333H13.9147ZM12.9824 3.15664H13.5946C13.7431 3.15664 13.8544 3.12418 13.9286 3.05925C14.0028 2.98968 14.0399 2.883 14.0399 2.73923C14.0399 2.60936 14.0005 2.50733 13.9216 2.43312C13.8474 2.35891 13.7384 2.32181 13.5946 2.32181H12.9824V3.15664ZM25.0731 6.00203C24.6093 6.00203 24.1826 5.89304 23.793 5.67506C23.408 5.45707 23.1019 5.15561 22.8747 4.77065C22.6474 4.3857 22.5338 3.95205 22.5338 3.4697C22.5338 2.98736 22.6474 2.55371 22.8747 2.16876C23.1019 1.7838 23.408 1.48466 23.793 1.27131C24.1826 1.05333 24.6093 0.944336 25.0731 0.944336C25.5369 0.944336 25.9612 1.05333 26.3462 1.27131C26.7311 1.48466 27.0349 1.7838 27.2575 2.16876C27.4848 2.55371 27.5984 2.98736 27.5984 3.4697C27.5984 3.95205 27.4848 4.3857 27.2575 4.77065C27.0349 5.15561 26.7288 5.45707 26.3392 5.67506C25.9543 5.89304 25.5322 6.00203 25.0731 6.00203ZM25.0731 4.56195C25.3792 4.56195 25.6157 4.46455 25.7827 4.26975C25.9496 4.07032 26.0331 3.80364 26.0331 3.4697C26.0331 3.13113 25.9496 2.86445 25.7827 2.66966C25.6157 2.47022 25.3792 2.37051 25.0731 2.37051C24.7623 2.37051 24.5235 2.47022 24.3565 2.66966C24.1895 2.86445 24.106 3.13113 24.106 3.4697C24.106 3.80364 24.1895 4.07032 24.3565 4.26975C24.5235 4.46455 24.7623 4.56195 25.0731 4.56195ZM38.1666 1.02782V4.20714C38.1666 4.79616 38.0113 5.24373 37.7005 5.54983C37.3944 5.8513 36.9631 6.00203 36.4065 6.00203C35.8082 6.00203 35.3328 5.83739 34.9804 5.50809C34.6279 5.17879 34.4516 4.69877 34.4516 4.068H35.9752C35.9752 4.26743 36.0077 4.40889 36.0726 4.49238C36.1375 4.57122 36.2256 4.61064 36.337 4.61064C36.4297 4.61064 36.5016 4.5805 36.5526 4.5202C36.6036 4.45991 36.6291 4.35556 36.6291 4.20714V1.02782H38.1666ZM46.9522 2.2592V2.86445H48.4827V4.02626H46.9522V4.72196H48.6914V5.95333H45.4077V1.02782H48.6914V2.2592H46.9522ZM55.7086 3.48362C55.7086 2.99663 55.806 2.56298 56.0008 2.18267C56.2003 1.80236 56.4832 1.50785 56.8496 1.29914C57.216 1.08579 57.6473 0.979121 58.1436 0.979121C58.5703 0.979121 58.9506 1.06028 59.2845 1.22261C59.6231 1.3803 59.8967 1.60524 60.1054 1.89744C60.3188 2.18963 60.4602 2.53052 60.5298 2.92011H58.9019C58.8277 2.75778 58.721 2.63255 58.5818 2.54443C58.4473 2.45167 58.292 2.40529 58.1157 2.40529C57.856 2.40529 57.6496 2.50269 57.4966 2.69748C57.3481 2.89228 57.2739 3.15432 57.2739 3.48362C57.2739 3.81291 57.3481 4.07496 57.4966 4.26975C57.6496 4.46455 57.856 4.56195 58.1157 4.56195C58.292 4.56195 58.4473 4.51789 58.5818 4.42976C58.721 4.337 58.8277 4.20946 58.9019 4.04713H60.5298C60.4602 4.43672 60.3188 4.77761 60.1054 5.0698C59.8967 5.36199 59.6231 5.58925 59.2845 5.75158C58.9506 5.90927 58.5703 5.98812 58.1436 5.98812C57.6473 5.98812 57.216 5.88377 56.8496 5.67506C56.4832 5.46171 56.2003 5.16488 56.0008 4.78457C55.806 4.40425 55.7086 3.97061 55.7086 3.48362ZM71.5282 1.02782V2.25224H70.2203V5.95333H68.6759V2.25224H67.3819V1.02782H71.5282Z" fill="#F4F4F4"/>
<path fill-rule="evenodd" clip-rule="evenodd" d="M23.8901 12.7773H38.904H39.0174V12.7796C40.4363 12.8368 41.5684 13.9616 41.5684 15.3407C41.5684 16.7199 40.4363 17.8446 39.0174 17.9018V17.9041H38.904H31.4607C28.619 18.5484 27.192 19.5665 26.3399 22.144V36.125V36.1386C26.3326 37.5202 25.1933 38.6379 23.7891 38.6379C22.385 38.6379 21.2458 37.5202 21.2384 36.1386V36.125V15.3063L21.2383 15.2902L21.2384 15.2723V15.2528C21.2559 13.8553 22.2522 12.7775 23.8901 12.7773Z" fill="#F4F4F4"/>
<path fill-rule="evenodd" clip-rule="evenodd" d="M2.7273 17.904L2.75293 17.9041H15.6078H15.6326C17.1694 17.8919 18.4111 16.7488 18.4111 15.3407C18.4111 13.9326 17.1694 12.7896 15.6326 12.7774L15.6078 12.7773H2.75293H2.7273C1.23272 12.7902 0.0253906 13.933 0.0253906 15.3407C0.0253906 16.7484 1.23272 17.891 2.7273 17.904Z" fill="#F4F4F4"/>
<path fill-rule="evenodd" clip-rule="evenodd" d="M52.1482 40.0022H52.1611H69.2206V39.995C69.2829 39.9998 69.3459 40.0022 69.4094 40.0022C70.7833 40.0022 71.897 38.8546 71.897 37.4389C71.897 36.0232 70.7833 34.8755 69.4094 34.8755C69.3459 34.8755 69.2829 34.878 69.2206 34.8828V34.8755H52.1611H52.1482C50.7384 34.8825 49.5977 36.0275 49.5977 37.4389C49.5977 38.8502 50.7384 39.9952 52.1482 40.0022Z" fill="#1CB1D9"/>
<path fill-rule="evenodd" clip-rule="evenodd" d="M108.747 12.7048C109.526 12.3683 110.517 12.4749 111.297 12.9252L111.298 12.9226L127.845 21.3406C130.344 22.2525 136.385 25.1085 135.933 31.2907C135.933 31.2948 135.933 31.2989 135.932 31.3029C135.926 31.8696 135.854 32.4183 135.727 32.9497C135.616 33.5249 135.475 33.9408 135.313 34.227C134.941 35.1363 134.428 35.9909 133.849 36.7947C132.673 38.4298 130.704 39.0883 128.861 39.5602C127.019 40.0321 125.014 39.6481 123.305 38.752C121.628 37.8724 119.63 35.2277 118.936 34.223L118.931 34.2156C118.92 34.1994 118.909 34.1836 118.898 34.1682L118.901 34.1669L107.689 16.105L107.691 16.1041C107.677 16.0796 107.663 16.0547 107.649 16.0295C107.018 14.8504 107.515 13.3641 108.747 12.7048ZM122.868 31.7631C122.882 31.7848 122.907 31.8254 122.943 31.8814C123.287 32.4298 124.563 34.4625 125.326 34.8628C126.176 35.3086 127.276 35.8678 128.192 35.633C129.109 35.3983 130.322 34.8175 130.907 34.0041C131.479 33.2094 131.765 32.3075 131.778 31.2976C131.762 31.2005 131.531 29.8889 130.693 28.6263C130.434 28.2358 129.045 27.4955 127.985 26.9304C127.551 26.6991 127.173 26.4972 126.949 26.3606L125.544 25.6095L116.05 20.7794L122.868 31.7631Z" fill="#F4F4F4"/>
<path fill-rule="evenodd" clip-rule="evenodd" d="M79.0957 2.46235C79.0957 2.44852 79.0959 2.43473 79.0961 2.42096V2.41834C79.1206 1.07873 80.2587 0 81.6591 0C83.0595 0 84.1977 1.07873 84.2221 2.41834L84.2229 12.7328L84.2243 12.7136C84.5026 15.2907 85.8246 17.4695 88.8578 17.778H97.1367C97.1731 17.7766 97.2102 17.7766 97.2478 17.778H97.256C97.6348 17.7935 98.0709 17.9477 98.4175 18.308C99.7734 19.7172 101.223 23.0207 102.181 25.2041C102.304 25.4835 102.418 25.7447 102.524 25.9811L107.09 34.5857C107.11 34.619 107.13 34.6529 107.148 34.6875C107.804 35.9124 107.323 37.447 106.075 38.115C104.827 38.7831 103.284 38.3316 102.628 37.1067C102.54 36.9428 102.473 36.7733 102.425 36.6011L96.5609 25.5415L96.8903 26.3735C95.3913 23.4652 93.8872 23.1749 92.4534 22.9047H88.3913C85.8717 23.5126 84.8579 24.1882 84.2244 27.941L84.2229 27.9232V36.6134H84.2209C84.2226 36.6511 84.2234 36.6891 84.2234 36.7272C84.2234 38.1429 83.0757 39.2906 81.66 39.2906C80.2443 39.2906 79.0966 38.1429 79.0966 36.7272C79.0966 36.6891 79.0975 36.6511 79.0991 36.6134H79.0961V2.50373C79.0959 2.48996 79.0957 2.47617 79.0957 2.46235Z" fill="#F4F4F4"/>
</g>
<defs>
<clipPath id="clip0_1_243">
<rect width="136" height="40" fill="white"/>
</clipPath>
</defs>
</svg>
