<svg width="18" height="13" viewBox="0 0 18 13" fill="none" xmlns="http://www.w3.org/2000/svg">
<path d="M16.4998 5.21382C16.6589 5.21382 16.8115 5.1506 16.9241 5.03808C17.0366 4.92556 17.0998 4.77295 17.0998 4.61382V1.61382C17.0998 1.29556 16.9734 0.990334 16.7483 0.76529C16.5233 0.540247 16.2181 0.413818 15.8998 0.413818H1.4998C1.18154 0.413818 0.87632 0.540247 0.651276 0.76529C0.426233 0.990334 0.299805 1.29556 0.299805 1.61382V4.61382C0.299805 4.77295 0.363019 4.92556 0.475541 5.03808C0.588062 5.1506 0.740675 5.21382 0.899805 5.21382C1.21806 5.21382 1.52329 5.34025 1.74833 5.56529C1.97338 5.79033 2.0998 6.09556 2.0998 6.41382C2.0998 6.73208 1.97338 7.0373 1.74833 7.26235C1.52329 7.48739 1.21806 7.61382 0.899805 7.61382C0.740675 7.61382 0.588062 7.67703 0.475541 7.78955C0.363019 7.90208 0.299805 8.05469 0.299805 8.21382V11.2138C0.299805 11.5321 0.426233 11.8373 0.651276 12.0623C0.87632 12.2874 1.18154 12.4138 1.4998 12.4138H15.8998C16.2181 12.4138 16.5233 12.2874 16.7483 12.0623C16.9734 11.8373 17.0998 11.5321 17.0998 11.2138V8.21382C17.0998 8.05469 17.0366 7.90208 16.9241 7.78955C16.8115 7.67703 16.6589 7.61382 16.4998 7.61382C16.1815 7.61382 15.8763 7.48739 15.6513 7.26235C15.4262 7.0373 15.2998 6.73208 15.2998 6.41382C15.2998 6.09556 15.4262 5.79033 15.6513 5.56529C15.8763 5.34025 16.1815 5.21382 16.4998 5.21382ZM15.8998 8.73582V11.2138H11.6998V9.41382H10.4998V11.2138H1.4998V8.73582C2.0134 8.60158 2.468 8.30085 2.79246 7.8807C3.11691 7.46054 3.29291 6.94467 3.29291 6.41382C3.29291 5.88297 3.11691 5.3671 2.79246 4.94694C2.468 4.52678 2.0134 4.22606 1.4998 4.09182V1.61382H10.4998V3.41382H11.6998V1.61382H15.8998V4.09182C15.3862 4.22606 14.9316 4.52678 14.6072 4.94694C14.2827 5.3671 14.1067 5.88297 14.1067 6.41382C14.1067 6.94467 14.2827 7.46054 14.6072 7.8807C14.9316 8.30085 15.3862 8.60158 15.8998 8.73582Z" fill="#F7F7F7"/>
</svg>
