<svg width="28" height="28" viewBox="0 0 28 28" fill="none" xmlns="http://www.w3.org/2000/svg">
<path d="M9.26585 4.21313L8.46789 4.39728C8.54015 4.71178 8.5492 5.03751 8.49447 5.35552C8.43973 5.67354 8.32233 5.9775 8.14907 6.24975C7.97583 6.522 7.7502 6.75709 7.4853 6.94135C7.22039 7.12562 6.92149 7.2554 6.60599 7.32312C5.96621 7.45771 5.29918 7.33591 4.74824 6.98393C4.1973 6.63195 3.80644 6.07786 3.65968 5.44076L2.06377 5.76813C1.8449 5.81588 1.638 5.90751 1.45554 6.03747C1.27309 6.16744 1.11888 6.33304 1.00222 6.52429C0.885568 6.71553 0.808892 6.92842 0.776829 7.15013C0.744767 7.37182 0.757983 7.59773 0.815677 7.81418C0.815677 7.81418 1.55225 11.2311 2.41159 15.0776" stroke="white" stroke-width="2.04605" stroke-linecap="round" stroke-linejoin="round"/>
<path d="M24.6081 4.19267C24.4859 4.53718 24.2948 4.85329 24.0468 5.12184C23.7988 5.39038 23.4989 5.60579 23.1652 5.75499C22.8315 5.90418 22.4708 5.98408 22.1053 5.98983C21.7397 5.99558 21.3769 5.92706 21.0387 5.78842C20.7003 5.6498 20.3938 5.44393 20.1374 5.18332C19.8811 4.9227 19.6803 4.61276 19.5472 4.27226C19.4142 3.93176 19.3517 3.56778 19.3634 3.20242C19.3752 2.83704 19.461 2.47786 19.6157 2.14662L17.9584 1.36912C17.5159 1.1847 17.0185 1.18224 16.5741 1.36227C16.1298 1.54231 15.7744 1.89031 15.585 2.33077L8.7103 18.515L7.81004 20.5611C7.62563 21.0037 7.62315 21.5011 7.80318 21.9452C7.98323 22.3896 8.33123 22.745 8.77168 22.9345L17.0786 26.4742C17.5212 26.6585 18.0186 26.661 18.4629 26.4809C18.9073 26.3009 19.2627 25.9528 19.452 25.5125L27.227 7.22082C27.3985 6.79546 27.4032 6.32109 27.2399 5.89248C27.0768 5.46386 26.758 5.11257 26.3472 4.90878L24.6081 4.19267Z" stroke="white" stroke-width="2.04605" stroke-linecap="round" stroke-linejoin="round"/>
</svg>
