<svg width="14" height="15" viewBox="0 0 14 15" fill="none" xmlns="http://www.w3.org/2000/svg">
<path d="M1.0332 4.58049H11.0332V2.41382H1.0332V4.58049ZM1.0332 13.7472C0.766536 13.7472 0.533203 13.6472 0.333203 13.4472C0.133203 13.2472 0.0332031 13.0138 0.0332031 12.7472V2.41382C0.0332031 2.14715 0.133203 1.91382 0.333203 1.71382C0.533203 1.51382 0.766536 1.41382 1.0332 1.41382H2.11654V0.413818H3.19987V1.41382H8.86654V0.413818H9.94987V1.41382H11.0332C11.2999 1.41382 11.5332 1.51382 11.7332 1.71382C11.9332 1.91382 12.0332 2.14715 12.0332 2.41382V7.53049C11.8758 7.44949 11.7142 7.38205 11.5485 7.32815C11.3828 7.27415 11.211 7.23049 11.0332 7.19715V5.58049H1.0332V12.7472H6.34987C6.41654 12.9361 6.4943 13.1111 6.5832 13.2722C6.6721 13.4333 6.77764 13.5916 6.89987 13.7472H1.0332ZM10.2165 14.4138C9.3451 14.4138 8.6022 14.1067 7.98787 13.4925C7.37364 12.8782 7.06654 12.1353 7.06654 11.2638C7.06654 10.3924 7.37364 9.64949 7.98787 9.03515C8.6022 8.42092 9.3451 8.11382 10.2165 8.11382C11.088 8.11382 11.8309 8.42092 12.4452 9.03515C13.0594 9.64949 13.3665 10.3924 13.3665 11.2638C13.3665 12.1353 13.0594 12.8782 12.4452 13.4925C11.8309 14.1067 11.088 14.4138 10.2165 14.4138ZM11.1872 12.9472L11.6499 12.4805L10.3999 11.2305V9.36382H9.74987V11.4638L11.1872 12.9472Z" fill="#F7F7F7"/>
</svg>
