<svg width="18" height="15" viewBox="0 0 18 15" fill="none" xmlns="http://www.w3.org/2000/svg">
<path opacity="0.9" fill-rule="evenodd" clip-rule="evenodd" d="M8.53669 4.3446L8.57372 4.95526L7.9565 4.88049C5.70981 4.59385 3.74704 3.62177 2.08054 1.98918L1.2658 1.17912L1.05595 1.77732C0.611545 3.11081 0.895467 4.51907 1.8213 5.46622C2.31508 5.98965 2.20398 6.06442 1.35221 5.75286C1.05595 5.65316 0.796712 5.57839 0.772023 5.61577C0.685611 5.70301 0.981879 6.8371 1.21642 7.28575C1.53738 7.90887 2.19164 8.51954 2.90761 8.88095L3.51249 9.16759L2.79651 9.18005C2.10522 9.18005 2.08054 9.19251 2.1546 9.45423C2.40149 10.2643 3.3767 11.1242 4.46302 11.4981L5.22837 11.7598L4.56177 12.1586C3.57422 12.7319 2.41384 13.0559 1.25346 13.0808C0.697956 13.0933 0.241211 13.1431 0.241211 13.1805C0.241211 13.3051 1.74724 14.003 2.62369 14.2772C5.25306 15.0873 8.37621 14.7383 10.7217 13.355C12.3882 12.3705 14.0547 10.4138 14.8324 8.51954C15.2521 7.51007 15.6718 5.66562 15.6718 4.78079C15.6718 4.20751 15.7088 4.13273 16.4001 3.4473C16.8075 3.0485 17.1902 2.61231 17.2642 2.48768C17.3877 2.2509 17.3753 2.2509 16.7458 2.46276C15.6965 2.83663 15.5483 2.78678 16.0668 2.22597C16.4495 1.82717 16.9062 1.10434 16.9062 0.892482C16.9062 0.855094 16.7211 0.917407 16.5112 1.02957C16.289 1.15419 15.7952 1.34113 15.4249 1.45329L14.7583 1.66516L14.1534 1.25389C13.8201 1.02957 13.351 0.780319 13.1041 0.705544C12.4746 0.531069 11.5117 0.555994 10.9439 0.755394C9.4008 1.31621 8.42559 2.76186 8.53669 4.3446Z" fill="white"/>
</svg>
