<svg width="16" height="17" viewBox="0 0 16 17" fill="none" xmlns="http://www.w3.org/2000/svg">
<path d="M14.9251 11.4516L11.2316 9.7966L11.2214 9.7919C10.8319 9.62529 10.3846 9.66657 10.0321 9.90166C10.0117 9.91515 9.99205 9.92981 9.97331 9.94556L8.06505 11.5724C6.85611 10.9852 5.60798 9.74643 5.02076 8.55317L6.64992 6.6159C6.6656 6.5963 6.6805 6.5767 6.69461 6.55553C6.92459 6.2041 6.96344 5.7609 6.7981 5.37482V5.36541L5.13836 1.6657C4.91735 1.15571 4.38708 0.851965 3.83535 0.919334C1.6377 1.20852 -0.0039678 3.08375 7.20304e-06 5.30035C7.20304e-06 11.5253 5.06467 16.59 11.2897 16.59C13.5062 16.594 15.3815 14.9523 15.6707 12.7546C15.7382 12.2031 15.4348 11.6729 14.9251 11.4516ZM11.2897 15.3356C5.74985 15.3295 1.26046 10.8401 1.25441 5.30035C1.24831 3.7166 2.41846 2.3743 3.98823 2.16433C3.98792 2.16746 3.98792 2.17061 3.98823 2.17374L5.63464 5.85855L4.0141 7.79818C3.99766 7.8171 3.98271 7.83729 3.96941 7.85855C3.72945 8.22677 3.69971 8.69373 3.89101 9.08943C4.60132 10.5422 6.06506 11.9949 7.53349 12.7045C7.93215 12.894 8.40109 12.8601 8.7683 12.6151C8.78843 12.6015 8.8078 12.5869 8.82631 12.5712L10.7322 10.9452L14.417 12.5955H14.4257C14.2182 14.1676 12.8754 15.3409 11.2897 15.3356Z" fill="#F7F7F7"/>
</svg>
