<svg width="26" height="18" viewBox="0 0 26 18" fill="none" xmlns="http://www.w3.org/2000/svg">
<path fill-rule="evenodd" clip-rule="evenodd" d="M0.15033 1.94696C0.15033 1.36845 0.619305 0.899475 1.19782 0.899475H24.2425C24.821 0.899475 25.29 1.36845 25.29 1.94696C25.29 2.52547 24.821 2.99445 24.2425 2.99445H1.19782C0.619305 2.99445 0.15033 2.52547 0.15033 1.94696ZM0.15033 9.27936C0.15033 8.70085 0.619305 8.23188 1.19782 8.23188H24.2425C24.821 8.23188 25.29 8.70085 25.29 9.27936C25.29 9.85787 24.821 10.3268 24.2425 10.3268H1.19782C0.619305 10.3268 0.15033 9.85787 0.15033 9.27936ZM11.6727 16.6118C11.6727 16.0333 12.1417 15.5643 12.7202 15.5643H24.2425C24.821 15.5643 25.29 16.0333 25.29 16.6118C25.29 17.1903 24.821 17.6593 24.2425 17.6593H12.7202C12.1417 17.6593 11.6727 17.1903 11.6727 16.6118Z" fill="white"/>
</svg>
