<svg width="20" height="14" viewBox="0 0 20 14" fill="none" xmlns="http://www.w3.org/2000/svg">
<path opacity="0.9" fill-rule="evenodd" clip-rule="evenodd" d="M17.364 0.580699C18.174 0.802965 18.8119 1.45787 19.0284 2.28954C19.4218 3.79685 19.4218 6.94185 19.4218 6.94185C19.4218 6.94185 19.4218 10.0867 19.0284 11.5942C18.8119 12.4258 18.174 13.0807 17.364 13.3031C15.8961 13.7069 10.0095 13.7069 10.0095 13.7069C10.0095 13.7069 4.12282 13.7069 2.65483 13.3031C1.84483 13.0807 1.20694 12.4258 0.990453 11.5942C0.597168 10.0867 0.597168 6.94185 0.597168 6.94185C0.597168 6.94185 0.597168 3.79685 0.990453 2.28954C1.20694 1.45787 1.84483 0.802965 2.65483 0.580699C4.12282 0.176758 10.0095 0.176758 10.0095 0.176758C10.0095 0.176758 15.8961 0.176758 17.364 0.580699ZM8.24468 4.29458V10.1773L12.9508 7.23604L8.24468 4.29458Z" fill="white"/>
</svg>
